# xmcd
#
# Track frame offsets:
#	150
#	11312
#	21447
#	32266
#	42100
#	59024
#	74876
#	84271
#	96673
#	109138
#
# Disc length: 1594 seconds
#
# Revision: 1
# Processed by: cddbd v1.5.2PL0 Copyright (c) Steve Scherf et al.
# Submitted via: audiograbber 1.83.01
#
DISCID=8206380a
DTITLE=Tami Neilson - Chickaboom!
DYEAR=2020
DGENRE=Country
TTITLE0=Call Your Mama
TTITLE1=Hey Bus Driver!
TTITLE2=Ten Tonne Truck
TTITLE3=Queenie, Queenie
TTITLE4=You Were Mine
TTITLE5=16 Miles of Chain
TTITLE6=Tell Me That You Love Me
TTITLE7=Any Fool with a Heart
TTITLE8=Sister Mavis
TTITLE9=Sleep
EXTD=
EXTT0=
EXTT1=
EXTT2=
EXTT3=
EXTT4=
EXTT5=
EXTT6=
EXTT7=
EXTT8=
EXTT9=
PLAYORDER=
